<svg xmlns="http://www.w3.org/2000/svg" width="87" height="87" viewBox="0 0 87 87">
  <path id="pokeball_icon_136305" d="M45.5,2A43.5,43.5,0,1,1,2,45.5,43.5,43.5,0,0,1,45.5,2m0,8.7A34.793,34.793,0,0,0,10.961,41.15h17.7a17.383,17.383,0,0,1,33.669,0h17.7A34.793,34.793,0,0,0,45.5,10.7m0,69.6A34.793,34.793,0,0,0,80.039,49.85h-17.7a17.383,17.383,0,0,1-33.669,0h-17.7A34.793,34.793,0,0,0,45.5,80.3m0-43.5a8.7,8.7,0,1,0,8.7,8.7A8.7,8.7,0,0,0,45.5,36.8Z" transform="translate(-2 -2)" fill="#B8B8B8"/>
</svg>
