<svg width="24px" height="24px" viewBox="0 0 24 24" id="_24x24_On_Light_Share" data-name="24x24/On Light/Share" xmlns="http://www.w3.org/2000/svg">
  <rect id="view-box" width="24" height="24" fill="none"/>
  <path id="Shape" d="M2.75,17.5A2.853,2.853,0,0,1,0,14.55V4.75a.75.75,0,1,1,1.5,0v9.8A1.363,1.363,0,0,0,2.75,16h12A1.363,1.363,0,0,0,16,14.55V4.75a.75.75,0,1,1,1.5,0v9.8A2.853,2.853,0,0,1,14.75,17.5ZM8,11.75V2.561L5.28,5.28A.75.75,0,0,1,4.22,4.22l4-4a.75.75,0,0,1,1.06,0l4,4a.75.75,0,0,1-1.061,1.06L9.5,2.561V11.75a.75.75,0,0,1-1.5,0Z" transform="translate(3.25 3.25)" fill="#ffffff"/>
</svg>
